<svg width="50" height="50" viewBox="0 0 50 50" fill="none" xmlns="http://www.w3.org/2000/svg">
<g clip-path="url(#clip0_60_216)">
<path d="M25 0C11.193 0 0 11.193 0 25C0 36.724 8.072 46.562 18.961 49.264V32.64H13.806V25H18.961V21.708C18.961 13.199 22.812 9.255 31.166 9.255C32.75 9.255 35.483 9.566 36.601 9.876V16.801C36.011 16.739 34.986 16.708 33.713 16.708C29.614 16.708 28.03 18.261 28.03 22.298V25H36.196L34.793 32.64H28.03V49.817C40.409 48.322 50.001 37.782 50.001 25C50 11.193 38.807 0 25 0Z" fill="#22243D"/>
</g>
<defs>
<clipPath id="clip0_60_216">
<rect width="50" height="50" fill="white"/>
</clipPath>
</defs>
</svg>
