<svg width="50" height="50" viewBox="0 0 50 50" fill="none" xmlns="http://www.w3.org/2000/svg">
<g clip-path="url(#clip0_60_211)">
<path d="M25 4.50195C31.6797 4.50195 32.4707 4.53125 35.0977 4.64844C37.5391 4.75586 38.8574 5.16602 39.7363 5.50781C40.8984 5.95703 41.7383 6.50391 42.6074 7.37305C43.4863 8.25195 44.0234 9.08203 44.4727 10.2441C44.8145 11.123 45.2246 12.4512 45.332 14.8828C45.4492 17.5195 45.4785 18.3105 45.4785 24.9805C45.4785 31.6602 45.4492 32.4512 45.332 35.0781C45.2246 37.5195 44.8145 38.8379 44.4727 39.7168C44.0234 40.8789 43.4766 41.7188 42.6074 42.5879C41.7285 43.4668 40.8984 44.0039 39.7363 44.4531C38.8574 44.7949 37.5293 45.2051 35.0977 45.3125C32.4609 45.4297 31.6699 45.459 25 45.459C18.3203 45.459 17.5293 45.4297 14.9023 45.3125C12.4609 45.2051 11.1426 44.7949 10.2637 44.4531C9.10156 44.0039 8.26172 43.457 7.39258 42.5879C6.51367 41.709 5.97656 40.8789 5.52734 39.7168C5.18555 38.8379 4.77539 37.5098 4.66797 35.0781C4.55078 32.4414 4.52148 31.6504 4.52148 24.9805C4.52148 18.3008 4.55078 17.5098 4.66797 14.8828C4.77539 12.4414 5.18555 11.123 5.52734 10.2441C5.97656 9.08203 6.52344 8.24219 7.39258 7.37305C8.27148 6.49414 9.10156 5.95703 10.2637 5.50781C11.1426 5.16602 12.4707 4.75586 14.9023 4.64844C17.5293 4.53125 18.3203 4.50195 25 4.50195ZM25 0C18.2129 0 17.3633 0.0292969 14.6973 0.146484C12.041 0.263672 10.2148 0.693359 8.63281 1.30859C6.98242 1.95313 5.58594 2.80273 4.19922 4.19922C2.80273 5.58594 1.95312 6.98242 1.30859 8.62305C0.693359 10.2148 0.263672 12.0313 0.146484 14.6875C0.0292969 17.3633 0 18.2129 0 25C0 31.7871 0.0292969 32.6367 0.146484 35.3027C0.263672 37.959 0.693359 39.7852 1.30859 41.3672C1.95312 43.0176 2.80273 44.4141 4.19922 45.8008C5.58594 47.1875 6.98242 48.0469 8.62305 48.6816C10.2148 49.2969 12.0312 49.7266 14.6875 49.8438C17.3535 49.9609 18.2031 49.9902 24.9902 49.9902C31.7773 49.9902 32.627 49.9609 35.293 49.8438C37.9492 49.7266 39.7754 49.2969 41.3574 48.6816C42.998 48.0469 44.3945 47.1875 45.7812 45.8008C47.168 44.4141 48.0273 43.0176 48.6621 41.377C49.2773 39.7852 49.707 37.9688 49.8242 35.3125C49.9414 32.6465 49.9707 31.7969 49.9707 25.0098C49.9707 18.2227 49.9414 17.373 49.8242 14.707C49.707 12.0508 49.2773 10.2246 48.6621 8.64258C48.0469 6.98242 47.1973 5.58594 45.8008 4.19922C44.4141 2.8125 43.0176 1.95313 41.377 1.31836C39.7852 0.703125 37.9688 0.273438 35.3125 0.15625C32.6367 0.0292969 31.7871 0 25 0Z" fill="#22243D"/>
<path d="M25 12.1582C17.9102 12.1582 12.1582 17.9102 12.1582 25C12.1582 32.0898 17.9102 37.8418 25 37.8418C32.0898 37.8418 37.8418 32.0898 37.8418 25C37.8418 17.9102 32.0898 12.1582 25 12.1582ZM25 33.3301C20.4004 33.3301 16.6699 29.5996 16.6699 25C16.6699 20.4004 20.4004 16.6699 25 16.6699C29.5996 16.6699 33.3301 20.4004 33.3301 25C33.3301 29.5996 29.5996 33.3301 25 33.3301Z" fill="#22243D"/>
<path d="M41.3477 11.6504C41.3477 13.3106 40 14.6484 38.3496 14.6484C36.6895 14.6484 35.3516 13.3008 35.3516 11.6504C35.3516 9.99024 36.6992 8.65234 38.3496 8.65234C40 8.65234 41.3477 10 41.3477 11.6504Z" fill="#22243D"/>
</g>
<defs>
<clipPath id="clip0_60_211">
<rect width="50" height="50" fill="white"/>
</clipPath>
</defs>
</svg>
