<svg width="50" height="50" viewBox="0 0 50 50" fill="none" xmlns="http://www.w3.org/2000/svg">
<path d="M24.9235 0C11.1589 0 0 11.1586 0 24.9232C0 38.6884 11.1589 49.8461 24.9235 49.8461C38.6896 49.8461 49.8473 38.6884 49.8473 24.9232C49.8473 11.1595 38.6896 0.00119047 24.9232 0.00119047L24.9235 0ZM36.3533 35.9464C35.9068 36.6786 34.9485 36.9107 34.2164 36.4613C28.3646 32.8869 20.9979 32.0774 12.3223 34.0595C11.4863 34.25 10.653 33.7262 10.4625 32.8899C10.2711 32.0536 10.7929 31.2202 11.631 31.0298C21.125 28.8598 29.2687 29.7946 35.8384 33.8095C36.5705 34.2589 36.8027 35.2143 36.3533 35.9464ZM39.4039 29.1592C38.8414 30.0744 37.6449 30.3631 36.7313 29.8006C30.0318 25.6818 19.8196 24.4893 11.8955 26.8946C10.8679 27.2051 9.78244 26.6259 9.47054 25.6C9.16101 24.5723 9.74048 23.489 10.7664 23.1765C19.8179 20.4301 31.0705 21.7604 38.764 26.4881C39.6777 27.0506 39.9664 28.2467 39.4039 29.1592ZM39.6658 22.0926C31.633 17.3214 18.3801 16.8827 10.7107 19.2104C9.47917 19.5839 8.17679 18.8887 7.80357 17.6571C7.43036 16.425 8.125 15.1235 9.35744 14.7491C18.1613 12.0765 32.7967 12.5929 42.0449 18.083C43.1551 18.7405 43.5182 20.1711 42.8604 21.2774C42.2057 22.3851 40.7711 22.7503 39.667 22.0926H39.6658Z" fill="#22243D"/>
</svg>
