<svg width="50" height="50" viewBox="0 0 50 50" fill="none" xmlns="http://www.w3.org/2000/svg">
<path d="M49.5019 15C49.5019 15 49.0137 11.5527 47.5098 10.0391C45.6055 8.04688 43.4766 8.03711 42.5 7.91992C35.5078 7.41211 25.0098 7.41211 25.0098 7.41211H24.9902C24.9902 7.41211 14.4922 7.41211 7.5 7.91992C6.52344 8.03711 4.39453 8.04688 2.49023 10.0391C0.986328 11.5527 0.507812 15 0.507812 15C0.507812 15 0 19.0527 0 23.0957V26.8848C0 30.9277 0.498047 34.9805 0.498047 34.9805C0.498047 34.9805 0.986328 38.4277 2.48047 39.9414C4.38477 41.9336 6.88477 41.8652 7.99805 42.0801C12.002 42.4609 25 42.5781 25 42.5781C25 42.5781 35.5078 42.5586 42.5 42.0605C43.4766 41.9434 45.6055 41.9336 47.5098 39.9414C49.0137 38.4277 49.5019 34.9805 49.5019 34.9805C49.5019 34.9805 50 30.9375 50 26.8848V23.0957C50 19.0527 49.5019 15 49.5019 15ZM19.834 31.4844V17.4316L33.3398 24.4824L19.834 31.4844Z" fill="#22243D"/>
</svg>
